<svg xmlns="http://www.w3.org/2000/svg" width="32" height="32" viewBox="0 0 32 32" fill="none"><g clip-path="url(#clip0_59_2)">
<rect width="32" height="32" rx="8" fill="url(#paint0_linear_59_2)"></rect>
<path d="M15.3978 10.88V11.18C15.0578 11.19 14.7978 11.24 14.6178 11.33C14.4478 11.42 14.3328 11.565 14.2728 11.765C14.2128 11.965 14.1828 12.25 14.1828 12.62V17.135C14.1828 17.835 14.1378 18.445 14.0478 18.965C13.9578 19.485 13.7978 19.935 13.5678 20.315C13.3178 20.735 12.9528 21.075 12.4728 21.335C11.9928 21.585 11.4428 21.71 10.8228 21.71C10.3428 21.71 9.88275 21.65 9.44275 21.53C9.01275 21.42 8.63275 21.21 8.30275 20.9C8.01275 20.62 7.78275 20.325 7.61275 20.015C7.45275 19.705 7.34275 19.325 7.28275 18.875C7.22275 18.425 7.19275 17.86 7.19275 17.18V12.47C7.19275 12.1 7.16275 11.83 7.10275 11.66C7.04275 11.48 6.92275 11.36 6.74275 11.3C6.57275 11.23 6.31775 11.19 5.97775 11.18V10.88C6.18775 10.89 6.46275 10.9 6.80275 10.91C7.14275 10.92 7.50775 10.925 7.89775 10.925C8.24775 10.925 8.59275 10.92 8.93275 10.91C9.28275 10.9 9.57275 10.89 9.80275 10.88V11.18C9.46275 11.19 9.20275 11.23 9.02275 11.3C8.85275 11.36 8.73775 11.48 8.67775 11.66C8.61775 11.83 8.58775 12.1 8.58775 12.47V17.435C8.58775 17.945 8.61275 18.43 8.66275 18.89C8.71275 19.34 8.81275 19.74 8.96275 20.09C9.12275 20.43 9.36275 20.7 9.68275 20.9C10.0028 21.09 10.4278 21.185 10.9578 21.185C11.7178 21.185 12.3028 21.02 12.7128 20.69C13.1328 20.35 13.4228 19.885 13.5828 19.295C13.7528 18.705 13.8378 18.04 13.8378 17.3V12.62C13.8378 12.25 13.7928 11.965 13.7028 11.765C13.6228 11.565 13.4828 11.42 13.2828 11.33C13.0828 11.24 12.8128 11.19 12.4728 11.18V10.88C12.6528 10.89 12.8878 10.9 13.1778 10.91C13.4778 10.92 13.7528 10.925 14.0028 10.925C14.2628 10.925 14.5178 10.92 14.7678 10.91C15.0278 10.9 15.2378 10.89 15.3978 10.88ZM21.2745 10.67C22.2245 10.67 23.0545 10.885 23.7645 11.315C24.4845 11.745 25.0395 12.365 25.4295 13.175C25.8295 13.975 26.0295 14.95 26.0295 16.1C26.0295 17.22 25.8245 18.2 25.4145 19.04C25.0145 19.88 24.4545 20.535 23.7345 21.005C23.0145 21.475 22.1895 21.71 21.2595 21.71C20.3095 21.71 19.4745 21.495 18.7545 21.065C18.0445 20.635 17.4895 20.015 17.0895 19.205C16.6995 18.395 16.5045 17.42 16.5045 16.28C16.5045 15.16 16.7095 14.18 17.1195 13.34C17.5295 12.5 18.0895 11.845 18.7995 11.375C19.5195 10.905 20.3445 10.67 21.2745 10.67ZM21.2145 10.94C20.5645 10.94 19.9995 11.165 19.5195 11.615C19.0395 12.065 18.6645 12.685 18.3945 13.475C18.1345 14.265 18.0045 15.18 18.0045 16.22C18.0045 17.28 18.1495 18.205 18.4395 18.995C18.7395 19.775 19.1395 20.38 19.6395 20.81C20.1495 21.23 20.7095 21.44 21.3195 21.44C21.9695 21.44 22.5345 21.215 23.0145 20.765C23.4945 20.315 23.8645 19.695 24.1245 18.905C24.3945 18.105 24.5295 17.19 24.5295 16.16C24.5295 15.09 24.3795 14.165 24.0795 13.385C23.7895 12.605 23.3945 12.005 22.8945 11.585C22.3945 11.155 21.8345 10.94 21.2145 10.94Z" fill="#FEF7EC"></path>
</g><defs>
<linearGradient id="paint0_linear_59_2" x1="16" y1="-3" x2="16" y2="59.5" gradientUnits="userSpaceOnUse">
<stop stop-color="#026438"></stop>
<stop offset="1" stop-color="#04CA72"></stop>
</linearGradient>
<clipPath id="clip0_59_2">
<rect width="32" height="32" fill="white"></rect>
</clipPath>
</defs></svg>